<?xml version="1.0" standalone="no"?><!DOCTYPE svg PUBLIC "-//W3C//DTD SVG 1.1//EN" "http://www.w3.org/Graphics/SVG/1.1/DTD/svg11.dtd"><svg t="1492400610445" class="icon" style="" viewBox="0 0 1024 1024" version="1.1" xmlns="http://www.w3.org/2000/svg" p-id="2374" xmlns:xlink="http://www.w3.org/1999/xlink" width="200" height="200"><defs><style type="text/css"></style></defs><path d="M1010.255 935.96l-0.028-0.028v0.029h0.028c9.13 10.666 13.71 22.47 13.71 35.412 0 14.478-5.148 26.85-15.445 37.147a50.686 50.686 0 0 1-37.175 15.445 55.596 55.596 0 0 1-17.72-2.873 47.216 47.216 0 0 1-15.445-8.533l-5.718-4.58-282.529-284.548c-67.837 48.013-143.725 71.99-227.604 71.99-8.391 0-16.953-0.37-25.713-1.109a277.608 277.608 0 0 1-25.742-3.441 368.059 368.059 0 0 1-162.44-59.447c-53.36-34.274-96.054-79.585-128.081-135.988a370.903 370.903 0 0 1-36.038-83.425 408.391 408.391 0 0 1-16.014-90.28 387.173 387.173 0 0 1 5.149-91.417 377.331 377.331 0 0 1 50.344-137.723 380.375 380.375 0 0 1 98.358-109.138c33.563-26.68 71.109-47.244 112.665-61.722A384.926 384.926 0 0 1 422.329 0c18.317 0 35.838 1.138 52.649 3.442 44.969 6.087 88.032 19.796 129.218 41.129a381.484 381.484 0 0 1 107.545 82.287c35.81 37.346 63.06 81.519 81.747 132.575 18.687 51.056 26.907 102.852 24.603 155.415-3.043 87.634-33.165 166.48-90.365 236.564l283.639 284.549h-1.11z m-251.64-522.25a320.558 320.558 0 0 0-22.868-137.126 323.573 323.573 0 0 0-40.048-75.432c-16.782-23.608-36.408-44.741-58.878-63.429a338.477 338.477 0 0 0-72.616-46.306A332.277 332.277 0 0 0 385.779 62.86a52.62 52.62 0 0 0-10.297 1.138l-6.883 1.138a324.568 324.568 0 0 0-135.533 54.27 323.26 323.26 0 0 0-98.927 106.862c-28.187 46.448-43.632 98.272-46.334 155.415-2.674 57.143 7.794 110.105 31.458 158.857a319.99 319.99 0 0 0 86.326 114.286 330.57 330.57 0 0 0 126.375 67.44c48.809 13.709 97.988 16.383 147.536 7.992a332.618 332.618 0 0 0 75.517-22.84 345.816 345.816 0 0 0 68.037-39.423 346.356 346.356 0 0 0 57.2-53.73c17.152-20.195 31.459-42.096 42.893-65.704v0.028a328.152 328.152 0 0 0 35.469-134.879z" fill="" p-id="2375"></path></svg>