<?xml version="1.0" standalone="no"?><!DOCTYPE svg PUBLIC "-//W3C//DTD SVG 1.1//EN" "http://www.w3.org/Graphics/SVG/1.1/DTD/svg11.dtd"><svg t="1492403408540" class="icon" style="" viewBox="0 0 1024 1024" version="1.1" xmlns="http://www.w3.org/2000/svg" p-id="10961" xmlns:xlink="http://www.w3.org/1999/xlink" width="200" height="200"><defs><style type="text/css"></style></defs><path d="M647.808 587.904a279.552 279.552 0 0 0 142.4-245.184C790.208 188.992 670.784 64 523.968 64S257.792 188.992 257.792 342.72c0 102.208 53.44 190.784 132.032 239.296C237.888 642.176 128 806.464 128 960h61.248c0-192.384 144.768-337.984 322.688-337.984 177.984 0 322.816 145.6 322.816 337.984H896c0-148.864-103.36-307.712-248.192-372.096zM319.04 342.72c0-118.336 91.968-214.592 204.928-214.592s204.992 96.256 204.992 214.592c0 118.272-91.968 214.528-204.992 214.528-112.96 0-204.928-96.256-204.928-214.528zM128 128H64V0h128v64H128v64z m832-128v128h-64V64h-64V0h128zM192 640H64V512h64v64h64v64z m704-128h64v128h-128V576h64V512z" fill="" p-id="10962"></path></svg>