<?xml version="1.0" standalone="no"?><!DOCTYPE svg PUBLIC "-//W3C//DTD SVG 1.1//EN" "http://www.w3.org/Graphics/SVG/1.1/DTD/svg11.dtd"><svg t="1492403435505" class="icon" style="" viewBox="0 0 1024 1024" version="1.1" xmlns="http://www.w3.org/2000/svg" p-id="11643" xmlns:xlink="http://www.w3.org/1999/xlink" width="200" height="200"><defs><style type="text/css"></style></defs><path d="M512 365.714286c-80.786286 0-146.285714 65.499429-146.285714 146.285714s65.499429 146.285714 146.285714 146.285714 146.285714-65.499429 146.285714-146.285714S592.786286 365.714286 512 365.714286zM512 585.142857c-40.321829 0-73.142857-32.821029-73.142857-73.142857s32.821029-73.142857 73.142857-73.142857 73.142857 32.821029 73.142857 73.142857S552.321829 585.142857 512 585.142857z" p-id="11644"></path><path d="M1024 475.428571l-75.000686 0C931.392 262.321371 761.678629 92.608 548.571429 75.000686L548.571429 0l-73.142857 0 0 75.000686C262.357943 92.608 92.642743 262.321371 75.000686 475.428571L0 475.428571l0 73.142857 75.000686 0C92.642743 761.678629 262.357943 931.392 475.428571 948.999314L475.428571 1024l73.142857 0 0-75.000686C761.678629 931.392 931.392 761.678629 948.999314 548.571429L1024 548.571429 1024 475.428571zM548.571429 875.856457 548.571429 804.571429l-73.142857 0 0 71.285029C302.928457 858.642286 165.357714 721.071543 148.143543 548.571429L219.428571 548.571429l0-73.142857L148.143543 475.428571C165.357714 302.928457 302.928457 165.357714 475.428571 148.143543L475.428571 219.428571l73.142857 0L548.571429 148.143543C721.071543 165.357714 858.642286 302.928457 875.856457 475.428571L804.571429 475.428571l0 73.142857 71.285029 0C858.642286 721.071543 721.071543 858.642286 548.571429 875.856457z" p-id="11645"></path></svg>