<?xml version="1.0" standalone="no"?><!DOCTYPE svg PUBLIC "-//W3C//DTD SVG 1.1//EN" "http://www.w3.org/Graphics/SVG/1.1/DTD/svg11.dtd"><svg t="1492401419776" class="icon" style="" viewBox="0 0 1024 1024" version="1.1" xmlns="http://www.w3.org/2000/svg" p-id="4628" xmlns:xlink="http://www.w3.org/1999/xlink" width="200" height="200"><defs><style type="text/css"></style></defs><path d="M908.249231 806.226115l-73.89908-74.062809-24.629957-12.346189-33.467229-33.539884c10.18599-19.85521 15.936971-42.369993 15.936971-66.234517 0-80.100316-64.788585-145.030118-144.709823-145.030118s-144.69959 64.929802-144.69959 145.030118c0 80.108502 64.779376 145.042397 144.69959 145.042397 30.807656 0 59.363016-9.656941 82.829474-26.104541l17.831111 17.872043 12.319583 12.346189 12.313443 24.680099 73.889871 74.073042c30.552853 25.393343 49.266054 0 49.266054 0l12.319583-12.346189C933.613922 832.137251 908.249231 806.226115 908.249231 806.226115zM645.172557 730.796168c-61.039191 0-110.50172-49.576115-110.50172-110.75243 0-61.178361 49.462528-110.74629 110.50172-110.74629 61.029982 0 110.49865 49.566906 110.49865 110.74629C755.671207 681.219029 706.201515 730.796168 645.172557 730.796168z" p-id="4629"></path><path d="M551.399847 418.147472c0 13.907755-8.226359 25.163099-18.35709 25.163099L243.975129 443.310571c-10.140964 0-18.358113-11.255345-18.358113-25.163099l0 0c0-13.894452 8.217149-25.167193 18.358113-25.167193l289.066605 0C543.173488 392.980279 551.399847 404.25302 551.399847 418.147472L551.399847 418.147472z" p-id="4630"></path><path d="M408.287405 520.582469c0 13.895475-8.086166 25.161053-18.064424 25.161053L243.67223 545.743522c-9.967002 0-18.054191-11.265578-18.054191-25.161053l0 0c0-13.899568 8.087189-25.169239 18.054191-25.169239l146.551774 0C400.20124 495.41323 408.287405 506.681878 408.287405 520.582469L408.287405 520.582469z" p-id="4631"></path><path d="M463.131501 623.291712c0 13.905708-8.013511 25.174356-17.891486 25.174356L244.689397 648.466068c-9.888208 0-17.891486-11.268648-17.891486-25.174356l0 0c0-13.889335 8.003278-25.15696 17.891486-25.15696l200.550619 0C455.119013 598.134753 463.131501 609.402377 463.131501 623.291712L463.131501 623.291712z" p-id="4632"></path><path d="M871.296621 139.656737 169.314709 139.656737c-41.769312 0-36.945447 37.036521-36.945447 37.036521l0 617.186667c0 32.949436 24.633027 37.035498 24.633027 37.035498l603.459015 0-36.951587-49.373501-24.623817 0c-45.966914 28.206412-110.846574 0-110.846574 0L181.629175 781.541923 181.629175 300.125475l665.035442 0 0 395.011542 49.266054 49.372477L895.930671 176.693258C895.929648 139.842978 871.296621 139.656737 871.296621 139.656737zM633.783159 259.132852c-18.454304 0-33.43039-15.004739-33.43039-33.503045 0-18.504446 14.976086-33.504068 33.43039-33.504068 18.457374 0 33.429367 14.998599 33.429367 33.504068C667.212526 244.128113 652.240533 259.132852 633.783159 259.132852zM722.25412 259.132852c-18.461467 0-33.43039-15.004739-33.43039-33.503045 0-18.504446 14.968923-33.504068 33.43039-33.504068 18.458397 0 33.417087 14.998599 33.417087 33.504068C755.671207 244.128113 740.712517 259.132852 722.25412 259.132852zM809.811268 259.132852c-18.458397 0-33.434483-15.004739-33.434483-33.503045 0-18.504446 14.976086-33.504068 33.434483-33.504068 18.454304 0 33.429367 14.998599 33.429367 33.504068C843.240635 244.128113 828.265572 259.132852 809.811268 259.132852z" p-id="4633"></path></svg>