<?xml version="1.0" standalone="no"?><!DOCTYPE svg PUBLIC "-//W3C//DTD SVG 1.1//EN" "http://www.w3.org/Graphics/SVG/1.1/DTD/svg11.dtd"><svg t="1492403609529" class="icon" style="" viewBox="0 0 1024 1024" version="1.1" xmlns="http://www.w3.org/2000/svg" p-id="13432" xmlns:xlink="http://www.w3.org/1999/xlink" width="200" height="200"><defs><style type="text/css"></style></defs><path d="M514.348999 965.783087c-41.767266 0-84.643796-12.658298-134.933155-39.835264-44.080961-23.822568-88.702228-56.004525-135.944182-90.073458-4.261047-3.071965-8.543583-6.161327-12.850679-9.261944-72.965825-52.517097-125.439944-100.985995-155.963121-144.05286l-0.676405-0.951675c-9.973142-13.970176-7.281847-39.020712-6.310729-45.88198l0.323365-379.963825c-0.49221-4.485151-1.686409-22.211884 7.777127-37.684274 15.659655-25.566282 66.182328-66.889433 123.628692-91.797729 56.492642-24.51944 141.871171-61.57745 302.635645-61.57745 85.856413 0 164.625408 16.162098 215.586057 29.721929 63.559595 16.910135 108.160395 35.892465 124.494409 44.444235 5.116531 2.672876 10.352789 5.362124 15.608489 8.060583 34.242895 17.58654 66.588581 34.196847 80.999802 52.895721 16.380062 21.255093 14.027481 52.104705 13.459546 57.567113l0 339.802126c0 5.569856 0.008186 10.673084 0.01535 15.35471 0.057305 37.518498 0.073678 48.840358-4.523013 58.07672-4.335748 8.652054-15.817244 31.55774-77.274968 78.018911-20.052708 15.131629-42.360783 22.801309-66.315358 22.801309-34.595936 0-61.114916-16.211217-65.786309-19.255553l-175.164439-89.155553c-8.463766 11.479449-27.037796 31.637558-65.079204 55.437613-45.585221 28.54001-137.508817 48.470945-141.40045 49.306986l-8.700149 1.865487-28.916587-60.634985 16.390295-1.245364c0.26913-0.021489 28.637224-2.363837 70.243831-16.027022 57.672514-18.978237 92.306312-41.000809 112.292506-71.406307 17.438161-26.544563 21.021779-84.018555 20.930705-103.924931l-0.052189-11.317767 58.898435 0-0.396019 11.648294c-0.047072 1.381463-1.172709 34.07712-3.323699 55.94722-1.421372 14.294564-5.15951 29.357632-7.833409 38.85289 20.62883 9.480932 73.54297 33.893948 122.522498 57.308217 14.120602 6.757914 25.508977 12.434194 35.55682 17.443277 30.695093 15.298428 42.180681 21.021779 57.614186 21.021779 1.353834 0 2.786463-0.044002 4.25593-0.13303 23.470551-1.390673 61.7289-37.404911 82.299401-61.784158L888.438023 241.71618c0-1.659803 0-3.505847-0.090051-4.446265-1.600451-1.558495-6.942109-4.924149-13.05841-8.778944l-2.726088-1.718131c-29.840632-18.837021-140.886751-81.404008-316.967048-95.630011-21.783119-1.759063-43.559075-2.650363-64.723094-2.650363-151.649885 0-251.816213 45.335535-298.025651 72.360028-44.936445 26.257014-59.742662 45.441958-63.413262 51.078329l0 398.370033c4.430916 6.109138 14.675234 20.11206 19.551288 25.794479 5.317099 6.208399 65.633836 65.666582 158.608368 129.906675 101.096513 69.865207 159.366637 97.083106 207.829396 97.080036 16.631796 0 33.406854-2.950192 54.388724-9.565866 67.494207-21.239743 154.031119-99.69049 154.896836-100.479459l8.685823-7.922437 39.499619 47.209208-6.727215 7.275707c-0.744967 0.805342-8.058536 8.491395-35.183314 30.101575l-1.977028 1.573845c-28.619828 22.795169-95.641267 76.18003-179.372274 91.340311C538.048771 964.716802 526.174326 965.783087 514.348999 965.783087zM222.520491 730.904639l5.082762-8.345062c0.223081-0.36532 22.825868-37.929868 38.376029-93.02672 15.636119-55.295374 16.114003-173.59571 16.117073-174.784792l0.147356-241.992473 11.299347 0.040932c0.013303 0 1.312902 0.004093 3.801583 0.004093 18.489096 0 117.02325-0.278339 241.429655-5.7694 90.994434-4.021593 218.475873-15.290241 219.752959-15.403828l8.67252-0.769526 21.457708 59.996442-14.938224 0.944512c-1.236154 0.077771-109.22361 6.887874-178.545442 10.549264l0 58.888202 186.855712 0 0 57.852616-186.855712 0 0 52.900837 150.823054 0 0 215.789695-60.764945 0L685.231925 487.512283 446.598966 487.512283l0 160.266124-60.810994 0L385.787972 431.989735 534.384311 431.989735l0-52.900837L354.283444 379.088898l0-57.852616L534.384311 321.236282l0-56.193837c-62.899562 2.228761-159.024853 4.600785-191.320397 5.376451l0 134.270053c0 107.069551-2.821255 176.852894-17.702174 238.892879-14.869662 61.936631-45.61592 114.331955-46.917566 116.532063l-6.700609 11.32493L222.520491 730.904639z" p-id="13433"></path></svg>