<?xml version="1.0" standalone="no"?><!DOCTYPE svg PUBLIC "-//W3C//DTD SVG 1.1//EN" "http://www.w3.org/Graphics/SVG/1.1/DTD/svg11.dtd"><svg t="1492610706551" class="icon" style="" viewBox="0 0 1024 1024" version="1.1" xmlns="http://www.w3.org/2000/svg" p-id="1010" xmlns:xlink="http://www.w3.org/1999/xlink" width="200" height="200"><defs><style type="text/css"></style></defs><path d="M956.375833 815.665091 65.169255 815.665091 65.169255 208.643947 956.375833 208.643947 956.375833 815.665091zM75.402317 805.432029 946.142771 805.432029 946.142771 218.877009 75.402317 218.877009 75.402317 805.432029z" p-id="1011" fill="#8a8a8a"></path><path d="M780.747837 446.224947c-41.996486 0-76.162634-34.166147-76.162634-76.162634 0-41.996486 34.166147-76.162634 76.162634-76.162634s76.163657 34.166147 76.163657 76.162634C856.910471 412.0588 822.744323 446.224947 780.747837 446.224947zM780.747837 304.132742c-36.352953 0-65.929572 29.575596-65.929572 65.929572 0 36.353976 29.575596 65.929572 65.929572 65.929572 36.353976 0 65.930595-29.575596 65.930595-65.929572C846.677409 333.709361 817.101813 304.132742 780.747837 304.132742z" p-id="1012" fill="#8a8a8a"></path><path d="M946.82634 623.560842c-116.991528-104.486726-245.524926-110.927415-332.744383-97.931426-94.886067 14.136975-162.940023 53.658084-163.616428 54.055127l-6.096858 3.583618-1.49812-6.910387c-19.265786-88.957031-87.443561-148.829653-202.639187-177.956018-86.565565-21.887496-168.353312-17.142425-169.168887-17.09433l-0.63138-10.212596c0.831948-0.052189 84.21503-4.88731 172.308391 17.386996 51.973722 13.141298 95.468328 33.008788 129.277342 59.051931 40.695864 31.347962 67.354014 71.695902 79.313394 120.012328 18.920932-10.013051 80.483033-39.941688 160.876014-51.981908 56.908104-8.523117 112.040772-6.585999 163.870208 5.758144 64.821331 15.437597 124.563994 47.26856 177.566138 94.606705L946.82634 623.560842z" p-id="1013" fill="#8a8a8a"></path></svg>