<?xml version="1.0" standalone="no"?><!DOCTYPE svg PUBLIC "-//W3C//DTD SVG 1.1//EN" "http://www.w3.org/Graphics/SVG/1.1/DTD/svg11.dtd"><svg t="1492262157662" class="icon" style="" viewBox="0 0 1024 1024" version="1.1" xmlns="http://www.w3.org/2000/svg" p-id="3751" xmlns:xlink="http://www.w3.org/1999/xlink" width="200" height="200"><defs><style type="text/css"></style></defs><path d="M500.363636 605.090909l23.272727 0C542.906182 605.090909 558.545455 620.730182 558.545455 640l0 162.909091c0 19.269818-15.639273 34.909091-34.932364 34.909091l-23.272727 0c-19.293091 0-34.909091-15.639273-34.909091-34.909091l0-162.909091C465.454545 620.730182 481.070545 605.090909 500.363636 605.090909z" p-id="3752"></path><path d="M884.363636 488.727273l0 419.746909C884.363636 933.678545 863.511273 954.181818 837.818182 954.181818L186.181818 954.181818c-25.669818 0-46.545455-20.503273-46.545455-45.707636L139.636364 488.727273 884.363636 488.727273M954.181818 418.909091 69.818182 418.909091l0 489.565091C69.818182 972.288 121.902545 1024 186.181818 1024l651.636364 0c64.279273 0 116.363636-51.712 116.363636-115.525818L954.181818 418.909091 954.181818 418.909091z" p-id="3753"></path><path d="M861.090909 418.909091l-69.818182 0 0-69.818182c0-156.997818-131.095273-279.272727-279.272727-279.272727-151.831273 0-279.272727 127.418182-279.272727 279.272727l0 69.818182L162.909091 418.909091l0-69.818182C162.909091 158.743273 321.652364 0 512 0c187.950545 0 349.090909 152.273455 349.090909 349.090909L861.090909 418.909091z" p-id="3754"></path></svg>