<?xml version="1.0" standalone="no"?><!DOCTYPE svg PUBLIC "-//W3C//DTD SVG 1.1//EN" "http://www.w3.org/Graphics/SVG/1.1/DTD/svg11.dtd"><svg t="1492262069494" class="icon" style="" viewBox="0 0 1024 1024" version="1.1" xmlns="http://www.w3.org/2000/svg" p-id="3085" xmlns:xlink="http://www.w3.org/1999/xlink" width="200" height="200"><defs><style type="text/css"></style></defs><path d="M725.409484 309.689295c-0.451278-1.648546-0.573051-3.39226-1.267876-4.929266-0.768503-1.733481-2.117221-3.155876-3.202948-4.757351-1.369184-2.023076-2.575662-4.106528-4.349051-5.77554-0.242524-0.222057-0.323365-0.533143-0.566912-0.748037L475.748355 79.825047c-1.213641-1.085728-2.724041-1.489934-4.046153-2.363837-2.036379-1.355881-3.958148-2.785439-6.277984-3.664459-2.177596-0.825808-4.41659-1.004887-6.696516-1.351787-1.692548-0.270153-3.223415-1.007957-4.989641-1.007957L145.059793 71.437006c-44.397163 0-80.487126 38.409798-80.487126 85.611843l0 709.901279c0 47.203068 36.089963 85.611843 80.487126 85.611843l501.588883 0c44.397163 0 80.487126-38.409798 80.487126-85.611843L727.135802 318.240041c0-0.303922-0.161682-0.556679-0.174985-0.856507C726.893278 314.739311 726.104309 312.248583 725.409484 309.689295zM486.86146 178.37148l120.016421 106.718557L501.102812 285.090037c-6.743588 0-14.241352-7.9296-14.241352-19.312858L486.86146 178.37148zM660.890029 866.950128c0 11.382235-7.498788 19.312858-14.241352 19.312858L145.059793 886.262986c-6.743588 0-14.241352-7.9296-14.241352-19.312858L130.818441 157.048849c0-11.382235 7.498788-19.312858 14.241352-19.312858l275.555893 0 0 128.040165c0 47.203068 36.089963 85.611843 80.487126 85.611843l159.78824 0L660.891052 866.950128zM582.831208 646.473691L208.877261 646.473691c-18.287505 0-33.122375 14.83487-33.122375 33.150004 0 18.314111 14.83487 33.150004 33.122375 33.150004l373.952924 0c18.287505 0 33.122375-14.83487 33.122375-33.150004C615.953583 661.308561 601.118714 646.473691 582.831208 646.473691zM175.754886 473.927893c0 18.314111 14.83487 33.150004 33.122375 33.150004l373.952924 0c18.287505 0 33.122375-14.83487 33.122375-33.150004 0-18.315134-14.83487-33.150004-33.122375-33.150004L208.877261 440.777889C190.589756 440.777889 175.754886 455.612759 175.754886 473.927893zM926.304957 71.437006L816.793798 71.437006c-18.287505 0-33.122375 14.83487-33.122375 33.150004l0 681.633469c0 0.010233 0 0.013303 0 0.023536-0.620124 5.559623 0.026606 11.241019 2.2656 16.565281l54.53915 129.200594c5.178953 12.272511 17.20894 20.256346 30.53341 20.256346 13.32447 0 25.354458-7.983835 30.53341-20.256346l54.53915-129.200594c0.452301-1.075495 0.182149-2.245134 0.512676-3.348258 1.780553-4.066619 2.832512-8.516977 2.832512-13.240559L959.427332 104.58701C959.427332 86.271876 944.592462 71.437006 926.304957 71.437006zM893.181559 753.070474l-43.264363 0 0-615.334483 43.264363 0L893.181559 753.070474z" fill="#272636" p-id="3086"></path></svg>