<?xml version="1.0" standalone="no"?><!DOCTYPE svg PUBLIC "-//W3C//DTD SVG 1.1//EN" "http://www.w3.org/Graphics/SVG/1.1/DTD/svg11.dtd"><svg t="1492402665987" class="icon" style="" viewBox="0 0 1024 1024" version="1.1" xmlns="http://www.w3.org/2000/svg" p-id="9166" xmlns:xlink="http://www.w3.org/1999/xlink" width="200" height="200"><defs><style type="text/css"></style></defs><path d="M901.403824 64.581877 122.596176 64.581877c-32.04074 0-58.014298 25.973558-58.014298 58.014298l0 778.807648c0 32.04074 25.973558 58.014298 58.014298 58.014298l778.807648 0c32.04074 0 58.014298-25.973558 58.014298-58.014298l0-778.807648C959.418123 90.555435 933.444565 64.581877 901.403824 64.581877zM209.506595 165.995615l604.986811 0c24.030299 0 43.51098 19.48068 43.51098 43.51098l0 270.405593L740.335429 479.912188l-51.054793-56.130392c-4.715395-6.989181-12.252045-12.037151-21.25407-13.329587-1.598404-0.229221-3.186576-0.331551-4.753257-0.316202-7.460925-0.023536-14.95255 2.632967-20.906146 8.049327-6.134721 5.580089-9.501398 13.06148-10.036587 20.72809l-53.051263 176.250166-76.521814-335.562569c-3.448542-14.458293-16.526395-24.098861-30.81175-23.754007-12.7023-0.310062-24.801872 7.278777-29.629831 19.816325l-95.059006 314.90918-91.861174-100.272751c-6.14086-6.702656-14.553461-10.081613-22.980387-10.038634-0.016373 0-0.032746-0.001023-0.050142-0.001023l-66.36857 0L165.996638 209.506595C165.995615 185.476295 185.476295 165.995615 209.506595 165.995615zM814.493405 858.003362 209.506595 858.003362c-24.030299 0-43.51098-19.48068-43.51098-43.51098L165.995615 542.137391l52.969399 0 118.521371 129.373533c6.206352 6.774287 14.733563 10.148128 23.25054 10.031471 12.654204 0.254803 24.688285-7.326872 29.498848-19.821441l77.584006-257.018701 76.94137 337.400427c3.400446 14.254655 16.160051 23.821545 30.209022 23.7581 15.240099 0.12075 28.605501-11.029194 30.832216-26.53433l71.320349-236.947574 25.944905 28.523637c2.62171 2.882654 5.66707 5.149277 8.950859 6.804986 4.52506 2.593058 9.763364 4.082992 15.352663 4.082992l130.631176 0L858.002338 814.493405C858.003362 838.523705 838.523705 858.003362 814.493405 858.003362z" p-id="9167"></path></svg>