<?xml version="1.0" standalone="no"?><!DOCTYPE svg PUBLIC "-//W3C//DTD SVG 1.1//EN" "http://www.w3.org/Graphics/SVG/1.1/DTD/svg11.dtd"><svg t="1492403622508" class="icon" style="" viewBox="0 0 1000 1000" version="1.1" xmlns="http://www.w3.org/2000/svg" p-id="14098" xmlns:xlink="http://www.w3.org/1999/xlink" width="200" height="200"><defs><style type="text/css"></style></defs><path d="M915.0996 607.1172H1000V392.822265625h-84.900390625c-86.1211 0-106.6289-49.7441-45.8984-110.5352l60.1191-60.1191-151.5508-151.4902-60.0586 60.0586c-60.8516 60.8516-110.6563 40.2227-110.4746-45.7773 0-0.2441-0.123-0.3672-0.123-0.5488V0H392.9140625v85.205078125c-0.2441 85.8164-49.8652 106.3242-110.627 45.5332l-60.0898-60.0586L70.709 222.168l60.0586 60.1191c60.8223 60.791 40.1914 110.5352-45.7773 110.5352H0v214.294921875h84.9921875c85.9688 0 106.5977 49.7441 45.7773 110.5957l-60.0586 60.0586 151.4902 151.5508 60.0898-60.1191c60.7598-60.7305 110.3828-40.2227 110.627 45.5332V1000h214.203125v-84.412109375c0-0.1836 0.123-0.3672 0.123-0.5488-0.1836-85.998 49.6211-106.5684 110.4746-45.8379l60.0586 60.1191 151.5508-151.5508-60.1191-60.0586C808.4727 656.8613 828.9805 607.1172 915.0996 607.1172zM500 687.5c-103.5469 0-187.5-83.9844-187.5-187.5s83.9531-187.5 187.5-187.5c103.5156 0 187.5 83.9844 187.5 187.5S603.5156 687.5 500 687.5z" p-id="14099"></path></svg>