<?xml version="1.0" standalone="no"?><!DOCTYPE svg PUBLIC "-//W3C//DTD SVG 1.1//EN" "http://www.w3.org/Graphics/SVG/1.1/DTD/svg11.dtd"><svg t="1492262177156" class="icon" style="" viewBox="0 0 1024 1024" version="1.1" xmlns="http://www.w3.org/2000/svg" p-id="4421" xmlns:xlink="http://www.w3.org/1999/xlink" width="200" height="200"><defs><style type="text/css"></style></defs><path d="M512.023075 615.987561c-169.855195 0-308.028393-138.150123-308.028393-308.005318S342.16788 0 512.023075 0C681.855195 0 820.028393 138.150123 820.028393 308.005318S681.855195 615.987561 512.023075 615.987561zM512.023075 71.924826c-130.166167 0-236.057417 105.914325-236.057417 236.057417s105.914325 236.057417 236.057417 236.057417 236.034342-105.914325 236.034342-236.057417S642.189242 71.924826 512.023075 71.924826z" p-id="4422"></path><path d="M920.035514 1024c-19.867589 0-35.97395-16.083286-35.97395-35.97395 0-205.136895-166.901593-372.038488-372.038488-372.038488-205.15997 0-372.038488 166.901593-372.038488 372.038488 0 19.867589-16.129436 35.97395-35.997025 35.97395S68.013611 1007.916714 68.013611 988.02605c0-244.802848 199.183541-443.963314 444.009464-443.963314 244.802848 0 443.963314 199.160466 443.963314 443.963314C955.986389 1007.916714 939.903103 1024 920.035514 1024z" p-id="4423"></path></svg>